<?xml version="1.0" encoding="UTF-8"?>
<!DOCTYPE svg  PUBLIC '-//W3C//DTD SVG 1.1//EN'  'http://www.w3.org/Graphics/SVG/1.1/DTD/svg11.dtd'>
<svg clip-rule="evenodd" fill-rule="evenodd" image-rendering="optimizeQuality" shape-rendering="geometricPrecision" text-rendering="geometricPrecision" version="1.1" viewBox="0 0 2322 1738" xml:space="preserve" xmlns="http://www.w3.org/2000/svg">
  <defs>
  <style type="text/css">
    .str0 {stroke:#99AAB5;stroke-width:29.53;stroke-linecap:round;stroke-linejoin:round;stroke-miterlimit:22.9256}
    .fil7 {fill:none}
    .fil10 {fill:#27282D;fill-rule:nonzero}
    .fil1 {fill:#50362D;fill-rule:nonzero}
    .fil3 {fill:#52322A;fill-rule:nonzero}
    .fil9 {fill:#6A493B;fill-rule:nonzero}
    .fil0 {fill:#6E4D44;fill-rule:nonzero}
    .fil8 {fill:#875B4E;fill-rule:nonzero}
    .fil6 {fill:#99AAB5;fill-rule:nonzero}
    .fil5 {fill:#CCD6DD;fill-rule:nonzero}
    .fil11 {fill:#E2E2E4;fill-rule:nonzero}
    .fil12 {fill:url(#c);fill-rule:nonzero}
    .fil4 {fill:url(#b);fill-rule:nonzero}
    .fil2 {fill:url(#a);fill-rule:nonzero}
  </style>
  <linearGradient id="c" x1="1620.6" x2="2060.8" y1="1516.1" y2="1154.6" gradientUnits="userSpaceOnUse">
    <stop stop-color="#875B4E" offset="0"/>
    <stop stop-color="#875B4E" offset=".21176"/>
    <stop stop-color="#765247" offset=".58039"/>
    <stop stop-color="#6E4D44" offset=".8902"/>
    <stop stop-color="#6E4D44" offset="1"/>
  </linearGradient>
  <radialGradient id="b" cx="465.21" cy="351.98" r="305.57" gradientTransform="matrix(-1.2325 .6077 -.45803 -.84672 1200 367)" gradientUnits="userSpaceOnUse">
    <stop stop-color="#FBE5CB" offset="0"/>
    <stop stop-color="#FBE5CB" offset=".27059"/>
    <stop stop-color="#EFD7BE" offset=".36078"/>
    <stop stop-color="#CFB09B" offset=".54118"/>
    <stop stop-color="#9C7464" offset=".78039"/>
    <stop stop-color="#875B4E" offset=".87059"/>
    <stop stop-color="#875B4E" offset="1"/>
  </radialGradient>
  <radialGradient id="a" cx="1258.2" cy="1018" r="604.96" gradientTransform="matrix(-.41498 1.069 -1.1897 -.44025 2991 121)" gradientUnits="userSpaceOnUse">
    <stop stop-color="#B68D76" offset="0"/>
    <stop stop-color="#B68D76" offset=".25882"/>
    <stop stop-color="#A87F6A" offset=".41176"/>
    <stop stop-color="#875B4E" offset=".67843"/>
    <stop stop-color="#875B4E" offset="1"/>
  </radialGradient>
 </defs>
  <path class="fil0" d="m1466.1 933.05s76.06-61.6 79.73-79.36c3.66-17.76-32.63-76.08-13.52-193.09 19.12-117.01 138.6-236.53 193.04-198.49 54.43 38.04 48.83 62.56 48.83 62.56l54.44-5.41 40.73 29.93 10.81 59.86 65.24 29.93 65.25 78.78-46.14 167.21-206.54 85.54-290.71 104.65-1.16-142.11z"/>
  <path class="fil1" d="m1646.2 477.36s58.49-22.01 86.87 12.17c20.46 24.52 5.4 57.15-10.81 80.13-16.22 23.17-37.84 52.52-53.09 78.78-14.86 25.87-31.27 62.56-23.16 70.67 13.12 13.13 43.43-24.52 61.19-50.2 30.88-45.19 57.72-78.98 69.3-92.49 16.21-19.12 40.92-32.83 69.29-9.46 29.92 24.52-2.7 70.67-12.16 81.48-9.45 10.81-48.83 58.5-62.54 77.43-13.51 19.11-29.92 47.5-20.46 57.15 8.11 8.11 35.32-16.22 50.19-31.28 14.86-14.87 51.34-55.03 61.58-65.26 21.81-21.82 44.2-45.57 78.36-17.77 29.93 24.53-82.81 193.09-82.81 193.09l77.41-47.5s96.52-144.04 32.24-197.53c-37.64-31.28-79.73-0.96-79.73-0.96s29.92-51.56-14.86-91.14c-40.54-35.53-85.51-12.16-85.51-12.16s1.35-38.04-36.68-58.51c-38.03-20.08-93.62 12.55-104.62 23.36z"/>
  <path class="fil2" d="m824.24 410.75-584.31 296.39s21.62 217.99 84.16 369.76c89.76 217.41 271.41 452.98 587.01 570.76 247.27 92.49 504.58 121.46 737.76 38.04 174.12-62.17 245.93-141.34 353.25-243.29 105.2-100.02 218.71-311.25 218.71-311.25s122.38-205.25 92.46-483.88c-29.54-274.96-221.41-515.16-430.65-564.01-182.23-42.67-183.77 5.41-107.33 104.66 73.35 95.19 152.11 176.67 184.73 277.27s65.25 304.5-122.38 388.68c-187.63 84.19-402.28 73.38-554.39-27.22s-258.08-220.12-307.11-293.5c-49.03-73.37-76.05-160.45-76.05-160.45l-75.86 38.04z"/>
  <path class="fil3" d="m946.42 1490.5c-8.1 0-16.02-4.25-20.26-11.78l-39.77-70.67c-6.37-11.2-2.31-25.29 8.88-31.47 11.2-6.37 25.29-2.32 31.46 8.88l39.77 70.67c6.37 11.2 2.32 25.3-8.88 31.47-3.28 1.94-7.33 2.9-11.2 2.9z"/>
  <path class="fil3" d="m1131.4 1567.5c-9.07 0-17.57-5.21-21.24-14.09l-30.88-72.41c-5.02-11.78 0.58-25.3 12.35-30.32 11.78-5.02 25.29 0.58 30.31 12.17l30.88 72.41c5.02 11.77-0.57 25.29-12.35 30.31-3.09 1.35-6.18 1.93-9.07 1.93z"/>
  <path class="fil3" d="m1246.4 1440.7c-7.14 0-14.09-3.28-18.53-9.26l-39.95-53.49c-7.73-10.23-5.6-24.71 4.63-32.44 10.23-7.72 24.71-5.6 32.43 4.64l39.96 53.48c7.72 10.24 5.59 24.72-4.64 32.44-4.24 3.09-9.07 4.64-13.9 4.64v-0.01z"/>
  <path class="fil3" d="m1433.8 1592.8c-8.11 0-16.02-4.25-20.27-11.78l-32.62-57.93c-6.37-11.2-2.32-25.29 8.88-31.47 11.19-6.37 25.28-2.32 31.46 8.88l32.62 57.93c6.37 11.2 2.32 25.29-8.88 31.47-3.47 1.93-7.33 2.9-11.19 2.9z"/>
  <path class="fil4" d="m146.12 685.32c55.4 68.74 194.96 181.31 541.64-24.52 318.31-188.84 237.82-388.88 204.81-452.99-30.89-59.85-68.33-83.22-68.33-83.22s33-71.83-28.57-108.13c-69.88-41.12-106.75 25.11-106.75 25.11s-148.44-65.08-341.67 21.04c-248.23 110.83-259.04 302.76-259.04 302.76s-74.32-1.35-83.39 83.42c-10.81 101.17 90.53 116.04 90.53 116.04s5.4 64.11 50.77 120.49z"/>
  <polygon class="fil5" points="1071.3 855.04 1037.5 851.05 1033.5 884.86 999.73 880.87 995.74 914.69 961.93 910.7 957.94 944.51 924.14 940.52 920.14 974.34 886.34 970.35 882.35 1004.2 848.54 1000.2 844.55 1034 810.75 1030 806.76 1063.8 538.42 723.55 572.23 727.54 575.82 694.04 610.02 697.72 614.41 663.59 647.82 667.9 652.2 633.77 685.61 638.07 690.39 603.64 723.41 608.25 728.58 573.5 761.21 578.42 764.8 544.92 799 548.6 802.99 514.78"/>
  <polygon class="fil5" points="1226.2 1051.4 1192.4 1047.4 1188.4 1081.2 1154.6 1077.2 1150.6 1111 1116.8 1107 1112.8 1140.9 1079 1136.9 1075 1170.7 1041.2 1166.7 1037.2 1200.5 1003.4 1196.5 999.4 1230.3 965.59 1226.3 961.6 1260.2 693.26 919.9 727.07 923.89 730.66 890.39 764.86 894.06 769.25 859.93 802.66 864.24 807.05 830.11 840.46 834.41 845.23 799.98 878.25 804.59 883.42 769.84 916.05 774.77 919.64 741.26 953.84 744.94 957.83 711.13"/>
  <circle class="fil6" transform="matrix(.13714 -.10822 .10819 .13718 730.34 694.78)" r="275.59"/>
  <line class="fil7 str0" x1="832.19" x2="869.36" y1="724.78" y2="695.45"/>
  <line class="fil7 str0" x1="728.94" x2="822.83" y1="865.84" y2="791.76"/>
  <line class="fil7 str0" x1="861.16" x2="898.33" y1="761.51" y2="732.18"/>
  <line class="fil7 str0" x1="757.91" x2="851.8" y1="902.57" y2="828.49"/>
  <line class="fil7 str0" x1="890.13" x2="927.3" y1="798.24" y2="768.91"/>
  <line class="fil7 str0" x1="786.88" x2="880.76" y1="939.3" y2="865.22"/>
  <line class="fil7 str0" x1="919.1" x2="956.26" y1="834.97" y2="805.65"/>
  <line class="fil7 str0" x1="815.85" x2="909.73" y1="976.04" y2="901.95"/>
  <line class="fil7 str0" x1="948.06" x2="985.23" y1="871.7" y2="842.38"/>
  <line class="fil7 str0" x1="844.81" x2="938.7" y1="1012.8" y2="938.68"/>
  <line class="fil7 str0" x1="977.03" x2="1014.2" y1="908.44" y2="879.11"/>
  <line class="fil7 str0" x1="873.78" x2="967.67" y1="1049.5" y2="975.41"/>
  <line class="fil7 str0" x1="1006" x2="1043.2" y1="945.17" y2="915.84"/>
  <line class="fil7 str0" x1="918.81" x2="1088.2" y1="1106.6" y2="972.94"/>
  <line class="fil7 str0" x1="1080" x2="1117.2" y1="1039" y2="1009.7"/>
  <path class="fil8" d="m924.81 620.05s72.58-135.35 233.76-23.17c171.21 119.14 38.02 256.81-51.54 255.46-89.57-1.35-153.46 8.11-203.84-8.11s-96.52-65.27-96.52-65.27l-47.48 32.64s9.45 92.49-23.17 131.88c-32.82 39.58 33.78 223.01-16.41 271.86-50.18 48.85-134.54 82.84-187.43 58.51-53.08-24.52-110.03-112.77-120.84-191.55-10.81-78.77 27.22-262.4 101.92-267.81 74.71-5.4 84.16 1.35 84.16 1.35s24.52-86.88 89.76-78.78c65.25 8.11 92.47 38.04 92.47 38.04l17.75-14.87s-23.16-36.68 24.52-80.13c47.48-43.44 101.92-6.76 101.92-6.76s0.97-41.12 0.97-53.29z"/>
  <path class="fil9" d="m431.03 1046c8.3 17.38 26.25-0.96 24.52-54.45-1.74-53.48 10.03-107.74 48.83-139.6 39-31.66 79.73-5.41 79.73-5.41s-8.11 24.53 0.96 55.23 27.22 41.71 22.58 8.11c-4.43-33.6 0-168.57 86.1-154.86 86.09 13.52 68.14 124.35 32.62 173.01-24.52 33.6-65.24 28-65.24 33.6 0 5.4 32.62 107.74 36.28 160.45 3.67 52.52-0.96 122.42-58.87 130.53s-135.89-18.15-131.26 0c4.44 18.15 112.34 85.15 202.88 36.3 96.12-51.94 68.91-181.31 65.24-205.64-3.67-24.52-22.58-87.85-23.55-100.6-0.19-1.74 38.03-34.95 47.1-78.01 12.74-59.85 1.74-88.82 1.74-88.82s35.32 44.41 86.09 58.9c50.77 14.48 111.38-0.97 111.38-0.97s104.23 33.6 178.36-16.22c74.31-49.82 75.86-111.41 71.61-125.89-11.77-39.78-18.91 4.63-29.92 23.56-16.21 27.99-55.2 65.26-119.48 75.11-64.28 10.04-91.5-13.52-101.54-12.75s-63.31 29.93-119.49-9.07c-71.03-49.24-52.11-113.54-16.21-123.19 29.92-8.11 83 9.07 104.24 39.77 19.88 28.97 36.29 74.34 42.66 64.3s0.96-54.45-20.85-83.41c-21.81-28.97-46.13-38.04-47.1-49.82-1.74-22.59 7.34-42.67 22.58-59.85 15.25-17.19 53.47-27.23 39-38.04-14.48-10.81-63.32-3.67-85.13 29.93-21.81 33.59-10.81 60.63-10.81 60.63s-66.21-28-110.61 23.55c-35.13 40.94-20.85 86.89-20.85 86.89s-35.32-55.22-96.9-43.44c-61.57 11.78-83.38 77.04-83.38 77.04s-57.92-24.52-110.61 10.81c-52.7 35.34-69.69 111.41-67.95 152.16 1.74 41.12 7.14 72.79 15.25 90.17v-0.01z"/>
  <path class="fil10" d="m287.42 371.94c-47.49 8.3-46.14 51.55-45.56 66.61 0.77 14.87 15.64 41.52 52.31 38.81 39.57-2.89 52.31-40.16 49.61-63.91s-29.14-46.15-56.36-41.51z"/>
  <path class="fil10" d="m623.1 214.38c-23.36 19.5-21.04 55.8 2.7 76.85 22.58 19.89 63.89 20.27 80.88-10.24 16.41-29.35 5.4-53.67-12.93-68.54-18.34-14.87-53.67-12.36-70.65 1.93z"/>
  <path class="fil10" d="m466.94 271.53c-44.98 21.63-30.89 66.23-34.56 100.6-4.24 38.04-29.34 46.15-29.34 78.78 0 26.45 40.73 18.73 78.76 20.47 31.85 1.35 61.96 35.33 42.85 59.86-12.16 15.64-33.59 10.62-45.55-0.78-12.16-11.58-22.39-11.58-27.8-2.7-5.4 8.88 8.88 56.19 64.47 51.56 49.61-4.06 61.77-59.86 61.77-59.86s44.98 18.73 78.18-3.48c36.68-24.52 27.8-72.79 12.93-86.89-14.86-14.09-26.64-4.82-27.21 0.78-1.36 12.16 6.75 15.64 8.1 25.87s-2.7 25.1-14.86 31.86c-10.62 5.79-25.87-2.13-31.85-11.59-6.18-9.46-6.76-27.99-5.41-38.03 4.06-29.93 73.94-71.45 57.14-99.83-15.63-26.45-33.2 4.83-83.58-28.58-20.65-13.71-47.68-65.26-104.04-38.03v-0.01z"/>
  <path class="fil11" d="m314.64 768.34c-0.78 0-1.74 0-2.71-0.19-7.91-1.35-13.12-8.88-11.58-16.8 0-0.58 8.88-48.65 16.99-100.21 8.1-52.52 18.91-92.87 19.3-94.61 2.12-7.72 10.04-12.36 17.76-10.23 7.72 2.12 12.35 10.04 10.23 17.76-0.19 0.39-10.81 40.74-18.72 91.52-8.11 51.94-16.99 100.41-16.99 100.99-1.35 6.95-7.34 11.78-14.29 11.78l0.01-0.01z"/>
  <path class="fil11" d="m402.46 781.48s-0.58 20.66-16.21 19.3c-16.6-1.35-12.74-21.43-12.74-21.43s4.83-67.77 6.76-105.04c2.12-37.46 6.75-98.28 6.75-98.28s1.16-16.22 15.83-15.25c14.67 0.96 13.12 17.37 13.12 17.37s-4.82 60.25-6.75 97.51c-1.93 37.66-6.76 105.82-6.76 105.82z"/>
  <path class="fil11" d="m453.23 758.3c-7.72 0-14.09-6.17-14.48-13.9 0 0-1.93-48.46-3.28-65.45-1.35-17.38-1.35-89.21-1.35-92.3 0-7.92 6.56-14.48 14.48-14.48 7.91 0 14.48 6.56 14.48 14.48 0 25.49 0.19 76.85 1.35 89.98 1.35 16.99 3.28 64.49 3.47 66.42 0.39 7.92-5.79 14.68-13.9 15.06-0.38 0.19-0.58 0.19-0.77 0.19z"/>
  <path class="fil11" d="m858.79 510.19c-2.32 0-4.83-0.58-7.14-1.93-0.39-0.2-46.33-25.88-76.83-41.13-30.11-15.06-75.28-31.09-75.86-31.28-7.53-2.7-11.58-11.01-8.88-18.54s11-11.39 18.53-8.88c1.93 0.77 47.49 16.8 79.14 32.63 31.27 15.64 76.06 40.74 77.99 41.71 6.95 3.86 9.46 12.74 5.6 19.7-2.51 5.02-7.34 7.72-12.55 7.72z"/>
  <path class="fil11" d="m887.36 451.1c-2.32 0-4.83-0.58-6.95-1.73-0.39-0.2-45.17-24.91-80.5-38.62-34.74-13.52-86.86-21.63-87.24-21.63-7.92-1.16-13.32-8.49-12.17-16.41 1.16-7.92 8.5-13.32 16.41-12.16 2.32 0.38 55.79 8.49 93.43 23.17 37.06 14.48 82.04 39.19 83.97 40.16 6.95 3.86 9.45 12.74 5.59 19.69-2.51 4.83-7.52 7.53-12.54 7.53z"/>
  <path class="fil11" d="m880.02 358.61c-0.77 0-1.35 0-2.12-0.19-0.58 0-49.61-7.53-79.53-10.81-29.15-3.28-80.88-1.35-81.46-1.35-7.91 0.58-14.67-5.99-15.06-13.9-0.38-7.92 5.99-14.68 13.9-15.07 2.13 0 54.44-2.12 85.71 1.35 30.5 3.48 78.76 10.62 80.69 11.01 7.91 1.16 13.31 8.5 12.16 16.41-1.16 7.34-7.34 12.55-14.29 12.55z"/>
  <path class="fil12" d="m1521.3 1523.9c-2.7-61.2 8.11-120.87 16.21-150.8 21.62-79.55 40.73-127.82 84.17-153.5 115.04-68.35 192.06-60.05 233.76-89.79 47.48-33.98 141.68-182.66 210.59-155.43 48.26 19.11 46.14 102.33 46.14 102.33s74.7 1.36 86.86 46.15c12.16 44.8-16.21 91.14-16.21 91.14s57.14 28.19 61.57 66.62c4.44 39.77-12.73 82.44-105 112.37s-211.95 31.67-211.95 31.67-27.03 161.03-213.3 209.3c-120.84 31.29-188.79-17.57-192.84-110.06z"/>
  <path class="fil1" d="m1527.1 1457.3c-8.11 3.67-45.17-175.32 69.69-254.68 93.23-64.3 187.43-49.82 240.13-91.53 52.5-41.7 178.36-221.47 268.12-145 48.83 41.7 23.55 92.48 23.55 92.48s57.33-12.35 90.53 44.41c33.59 57.16-14.48 108.71-14.48 108.71s57.14 19.12 57.91 63.33c0.97 44.42-17.18 89.79-66.98 112.38-57.72 26.26-144 48.85-193.03 51.56-48.84 2.7-105.01-11.78-63.32-18.15 41.7-6.38 195.74-55.23 229.13-65.27 57.14-17.18 56.17-59.85 40.73-76.07-22.39-23.75-43.43-18.15-110.61 1.73-56.36 16.8-126.82 49.82-129.52 28.97-2.7-20.86 64.28-43.45 109.64-68.94 45.36-25.29 120.45-52.51 100.57-98.66s-63.31-37.07-112.34-7.34c-48.84 29.93-131.84 92.49-135.9 67.97-1.73-10.82 79.72-77.04 103.27-93.26s72.39-51.56 39-90.56c-33.4-39-78.76 5.41-112.35 36.3-33.58 30.89-74.31 89.78-119.48 108.71-68.14 28.57-165.24 37.65-210.99 72.4-97.67 74.73-87.25 213.37-103.27 220.51z"/>
</svg>
