<?xml version="1.0" encoding="UTF-8"?>
<!DOCTYPE svg  PUBLIC '-//W3C//DTD SVG 1.1//EN'  'http://www.w3.org/Graphics/SVG/1.1/DTD/svg11.dtd'>
<svg clip-rule="evenodd" enable-background="new 0 0 128 128" fill-rule="evenodd" image-rendering="optimizeQuality" shape-rendering="geometricPrecision" text-rendering="geometricPrecision" version="1.1" viewBox="0 0 8860 1732" xml:space="preserve" xmlns="http://www.w3.org/2000/svg">
  <defs>
    <style type="text/css">
      .str0 {stroke:#99AAB5;stroke-width:29.53;stroke-linecap:round;stroke-linejoin:round;stroke-miterlimit:22.9256}
      .fil7 {fill:none}
      .fil13 {fill:#2B2A29;fill-rule:nonzero}
      .fil10 {fill:#27282D;fill-rule:nonzero}
      .fil1 {fill:#50362D;fill-rule:nonzero}
      .fil3 {fill:#52322A;fill-rule:nonzero}
      .fil14 {fill:#5858FF;fill-rule:nonzero}
      .fil9 {fill:#6A493B;fill-rule:nonzero}
      .fil0 {fill:#6E4D44;fill-rule:nonzero}
      .fil8 {fill:#875B4E;fill-rule:nonzero}
      .fil6 {fill:#99AAB5;fill-rule:nonzero}
      .fil5 {fill:#CCD6DD;fill-rule:nonzero}
      .fil11 {fill:#E2E2E4;fill-rule:nonzero}
      .fil12 {fill:url(#c);fill-rule:nonzero}
      .fil4 {fill:url(#b);fill-rule:nonzero}
      .fil2 {fill:url(#a);fill-rule:nonzero}
    </style>
    <linearGradient id="c" x1="1616.5" x2="2056.7" y1="1513.1" y2="1151.6" gradientUnits="userSpaceOnUse">
      <stop stop-color="#875B4E" offset="0"/>
      <stop stop-color="#875B4E" offset=".21176"/>
      <stop stop-color="#765247" offset=".58039"/>
      <stop stop-color="#6E4D44" offset=".8902"/>
      <stop stop-color="#6E4D44" offset="1"/>
    </linearGradient>
    <radialGradient id="b" cx="461.17" cy="348.98" r="305.57" gradientTransform="matrix(-1.2325 .6077 -.45803 -.84672 1189 364)" gradientUnits="userSpaceOnUse">
      <stop stop-color="#FBE5CB" offset="0"/>
      <stop stop-color="#FBE5CB" offset=".27059"/>
      <stop stop-color="#EFD7BE" offset=".36078"/>
      <stop stop-color="#CFB09B" offset=".54118"/>
      <stop stop-color="#9C7464" offset=".78039"/>
      <stop stop-color="#875B4E" offset=".87059"/>
      <stop stop-color="#875B4E" offset="1"/>
    </radialGradient>
    <radialGradient id="a" cx="1254.1" cy="1015" r="604.96" gradientTransform="matrix(-.41498 1.069 -1.1897 -.44025 2982 121)" gradientUnits="userSpaceOnUse">
      <stop stop-color="#B68D76" offset="0"/>
      <stop stop-color="#B68D76" offset=".25882"/>
      <stop stop-color="#A87F6A" offset=".41176"/>
      <stop stop-color="#875B4E" offset=".67843"/>
      <stop stop-color="#875B4E" offset="1"/>
    </radialGradient>
  </defs>
  <path class="fil0" d="m1462 930.05s76.05-61.6 79.72-79.36c3.66-17.76-32.62-76.08-13.51-193.09s138.59-236.53 193.02-198.49 48.83 62.56 48.83 62.56l54.43-5.41 40.73 29.93 10.81 59.86 65.24 29.93 65.24 78.78-46.13 167.21-206.53 85.54-290.69 104.65-1.16-142.11z"/>
  <path class="fil1" d="m1642.1 474.36s58.48-22.01 86.86 12.17c20.46 24.52 5.4 57.15-10.81 80.13-16.22 23.17-37.83 52.52-53.08 78.78-14.86 25.87-31.27 62.56-23.17 70.67 13.13 13.13 43.43-24.52 61.19-50.2 30.89-45.19 57.72-78.98 69.3-92.49 16.21-19.12 40.92-32.83 69.29-9.46 29.92 24.52-2.7 70.67-12.16 81.48s-48.83 58.5-62.54 77.43c-13.51 19.11-29.92 47.5-20.46 57.15 8.11 8.11 35.32-16.22 50.19-31.28 14.86-14.87 51.34-55.03 61.57-65.26 21.81-21.82 44.2-45.57 78.36-17.77 29.92 24.53-82.8 193.09-82.8 193.09l77.4-47.5s96.51-144.04 32.23-197.53c-37.64-31.28-79.71-0.96-79.71-0.96s29.91-51.56-14.87-91.14c-40.53-35.53-85.5-12.16-85.5-12.16s1.35-38.04-36.68-58.51c-38.02-20.08-93.61 12.55-104.62 23.37l0.01-0.01z"/>
  <path class="fil2" d="m820.18 407.75-584.27 296.39s21.62 217.99 84.15 369.76c89.76 217.41 271.39 452.98 586.98 570.77 247.26 92.48 504.55 121.45 737.72 38.03 174.1-62.17 245.91-141.34 353.23-243.29 105.19-100.02 218.69-311.25 218.69-311.25s122.37-205.25 92.46-483.88c-29.54-274.96-221.4-515.16-430.63-564.01-182.21-42.67-183.76 5.41-107.32 104.66 73.35 95.19 152.1 176.67 184.72 277.27s65.24 304.5-122.37 388.68c-187.62 84.19-402.26 73.38-554.36-27.22s-258.07-220.12-307.09-293.49c-49.03-73.38-76.05-160.46-76.05-160.46l-75.86 38.04z"/>
  <path class="fil3" d="m942.36 1487.5c-8.11 0-16.02-4.25-20.27-11.78l-39.76-70.67c-6.37-11.2-2.32-25.29 8.88-31.47 11.19-6.37 25.29-2.32 31.46 8.88l39.76 70.67c6.37 11.2 2.32 25.3-8.88 31.47-3.28 1.94-7.33 2.9-11.19 2.9z"/>
  <path class="fil3" d="m1127.3 1564.5c-9.07 0-17.56-5.21-21.23-14.09l-30.88-72.41c-5.02-11.78 0.58-25.29 12.35-30.31 11.78-5.03 25.29 0.57 30.31 12.16l30.88 72.41c5.02 11.77-0.58 25.29-12.35 30.31-3.09 1.35-6.18 1.93-9.08 1.93z"/>
  <path class="fil3" d="m1242.3 1437.7c-7.14 0-14.09-3.28-18.53-9.26l-39.95-53.49c-7.72-10.23-5.6-24.71 4.63-32.44 10.23-7.72 24.71-5.6 32.43 4.64l39.95 53.48c7.73 10.24 5.6 24.72-4.63 32.44-4.24 3.09-9.07 4.64-13.9 4.64v-0.01z"/>
  <path class="fil3" d="m1429.7 1589.8c-8.11 0-16.02-4.25-20.27-11.78l-32.62-57.93c-6.37-11.2-2.32-25.29 8.88-31.47 11.19-6.37 25.28-2.32 31.46 8.88l32.62 57.93c6.37 11.2 2.32 25.29-8.88 31.47-3.47 1.93-7.33 2.9-11.19 2.9z"/>
  <path class="fil4" d="m142.1 682.32c55.4 68.74 194.95 181.31 541.61-24.52 318.29-188.84 237.8-388.88 204.8-452.99-30.89-59.85-68.33-83.22-68.33-83.22s33-71.83-28.57-108.13c-69.87-41.12-106.74 25.11-106.74 25.11s-148.43-65.08-341.65 21.04c-248.22 110.83-259.03 302.76-259.03 302.76s-74.31-1.35-83.38 83.42c-10.81 101.17 90.52 116.04 90.52 116.04s5.41 64.11 50.77 120.49z"/> 
  <polygon class="fil5" points="1067.3 852.04 1033.4 848.05 1029.5 881.86 995.66 877.87 991.67 911.69 957.87 907.7 953.88 941.51 920.07 937.52 916.08 971.34 882.28 967.35 878.29 1001.2 844.49 997.17 840.49 1031 806.69 1027 802.7 1060.8 534.38 720.55 568.18 724.54 571.78 691.04 605.98 694.72 610.36 660.59 643.77 664.9 648.16 630.77 681.56 635.07 686.34 600.64 719.36 605.25 724.53 570.5 757.15 575.42 760.74 541.92 794.94 545.6 798.93 511.78"/>
  <polygon class="fil5" points="1222.1 1048.4 1188.3 1044.4 1184.3 1078.2 1150.5 1074.2 1146.5 1108 1112.7 1104 1108.7 1137.9 1074.9 1133.9 1070.9 1167.7 1037.1 1163.7 1033.1 1197.5 999.32 1193.5 995.33 1227.3 961.53 1223.3 957.54 1257.2 689.21 916.9 723.02 920.89 726.61 887.39 760.81 891.06 765.2 856.93 798.6 861.24 802.99 827.11 836.4 831.41 841.17 796.98 874.19 801.59 879.36 766.84 911.98 771.77 915.58 738.26 949.78 741.94 953.77 708.13"/>
  <circle class="fil6" transform="matrix(.13714 -.10822 .10818 .13718 726.28 691.78)" r="275.59"/>
  <line class="fil7 str0" x1="828.14" x2="865.3" y1="721.78" y2="692.45"/>
  <line class="fil7 str0" x1="724.89" x2="818.77" y1="862.84" y2="788.76"/>
  <line class="fil7 str0" x1="857.1" x2="894.27" y1="758.51" y2="729.18"/>
  <line class="fil7 str0" x1="753.86" x2="847.74" y1="899.57" y2="825.49"/>
  <line class="fil7 str0" x1="886.07" x2="923.23" y1="795.24" y2="765.91"/>
  <line class="fil7 str0" x1="782.82" x2="876.7" y1="936.3" y2="862.22"/>
  <line class="fil7 str0" x1="915.03" x2="952.2" y1="831.97" y2="802.65"/>
  <line class="fil7 str0" x1="811.79" x2="905.67" y1="973.04" y2="898.95"/>
  <line class="fil7 str0" x1="944" x2="981.16" y1="868.7" y2="839.38"/>
  <line class="fil7 str0" x1="840.76" x2="934.64" y1="1009.8" y2="935.68"/>
  <line class="fil7 str0" x1="972.97" x2="1010.1" y1="905.44" y2="876.11"/>
  <line class="fil7 str0" x1="869.72" x2="963.6" y1="1046.5" y2="972.41"/>
  <line class="fil7 str0" x1="1001.9" x2="1039.1" y1="942.17" y2="912.84"/>
  <line class="fil7 str0" x1="914.75" x2="1084.1" y1="1103.6" y2="969.94"/>
  <line class="fil7 str0" x1="1075.9" x2="1113.1" y1="1036" y2="1006.7"/> 
  <path class="fil8" d="m920.74 617.05s72.58-135.35 233.75-23.17c171.21 119.14 38.02 256.81-51.54 255.46s-153.45 8.11-203.83-8.11c-50.37-16.22-96.51-65.27-96.51-65.27l-47.48 32.64s9.46 92.49-23.16 131.88c-32.82 39.58 33.78 223.01-16.41 271.86-50.18 48.85-134.53 82.84-187.42 58.51-53.08-24.52-110.02-112.77-120.83-191.55-10.81-78.77 27.22-262.4 101.91-267.81 74.7-5.4 84.16 1.35 84.16 1.35s24.51-86.88 89.75-78.78c65.24 8.11 92.46 38.04 92.46 38.04l17.76-14.87s-23.16-36.68 24.51-80.13c47.49-43.44 101.92-6.76 101.92-6.76s0.96-41.12 0.96-53.29z"/>
  <path class="fil9" d="m427 1043c8.3 17.38 26.25-0.96 24.51-54.45-1.74-53.48 10.04-107.74 48.83-139.6 39-31.66 79.72-5.41 79.72-5.41s-8.11 24.53 0.97 55.23c9.07 30.7 27.21 41.71 22.58 8.11-4.44-33.6 0-168.57 86.09-154.86 86.08 13.52 68.13 124.35 32.62 173.01-24.52 33.6-65.24 28-65.24 33.6 0 5.4 32.62 107.74 36.29 160.45 3.66 52.52-0.97 122.42-58.88 130.53-57.9 8.11-135.88-18.15-131.25 0 4.44 18.15 112.34 85.15 202.86 36.3 96.13-51.94 68.91-181.31 65.24-205.64-3.66-24.52-22.58-87.85-23.54-100.6-0.2-1.74 38.02-34.95 47.09-78.01 12.74-59.85 1.74-88.82 1.74-88.82s35.32 44.41 86.09 58.9c50.76 14.48 111.37-0.97 111.37-0.97s104.23 33.6 178.35-16.22c74.31-49.82 75.86-111.41 71.61-125.89-11.77-39.78-18.91 4.63-29.92 23.56-16.21 27.99-55.2 65.26-119.48 75.11-64.27 10.04-91.49-13.52-101.53-12.75-10.03 0.77-63.31 29.93-119.48-9.07-71.03-49.24-52.11-113.54-16.21-123.19 29.92-8.11 83 9.07 104.23 39.77 19.88 28.97 36.29 74.34 42.66 64.3s0.96-54.45-20.85-83.41-46.13-38.04-47.09-49.82c-1.74-22.59 7.33-42.67 22.58-59.85 15.25-17.19 53.47-27.23 38.99-38.04s-63.31-3.67-85.12 29.93c-21.81 33.59-10.81 60.63-10.81 60.63s-66.21-28-110.6 23.55c-35.13 40.94-20.85 86.89-20.85 86.89s-35.32-55.22-96.89-43.44c-61.58 11.78-83.39 77.04-83.39 77.04s-57.91-24.52-110.6 10.81c-52.69 35.34-69.68 111.41-67.94 152.16 1.74 41.12 7.14 72.79 15.25 90.17v-0.01z"/>
  <path class="fil10" d="m283.39 368.94c-47.48 8.3-46.13 51.55-45.55 66.61 0.77 14.87 15.63 41.52 52.31 38.81 39.57-2.89 52.3-40.16 49.6-63.91s-29.14-46.15-56.36-41.51z"/>
  <path class="fil10" d="m619.05 211.38c-23.35 19.5-21.04 55.8 2.7 76.85 22.59 19.89 63.89 20.27 80.88-10.24 16.41-29.35 5.4-53.67-12.93-68.54-18.34-14.87-53.66-12.36-70.65 1.93z"/>
  <path class="fil10" d="m462.9 268.53c-44.98 21.63-30.88 66.23-34.55 100.6-4.25 38.04-29.34 46.15-29.34 78.78 0 26.46 40.73 18.73 78.75 20.47 31.85 1.35 61.96 35.33 42.85 59.86-12.16 15.64-33.58 10.62-45.55-0.78-12.16-11.58-22.39-11.58-27.8-2.7-5.4 8.88 8.88 56.19 64.47 51.56 49.61-4.06 61.77-59.86 61.77-59.86s44.97 18.73 78.17-3.48c36.68-24.52 27.8-72.79 12.94-86.89-14.87-14.09-26.64-4.82-27.22 0.78-1.35 12.16 6.75 15.64 8.11 25.87 1.35 10.23-2.71 25.1-14.87 31.86-10.61 5.79-25.86-2.13-31.85-11.59-6.17-9.46-6.75-27.99-5.4-38.03 4.05-29.93 73.93-71.45 57.13-99.83-15.63-26.45-33.19 4.83-83.57-28.58-20.66-13.71-47.68-65.26-104.04-38.03v-0.01z"/>
  <path class="fil11" d="m310.61 765.34c-0.77 0-1.74 0-2.71-0.19-7.91-1.35-13.12-8.88-11.58-16.8 0-0.58 8.88-48.65 16.99-100.21 8.11-52.52 18.92-92.87 19.3-94.61 2.12-7.72 10.04-12.36 17.76-10.23 7.72 2.12 12.35 10.04 10.23 17.76-0.19 0.39-10.81 40.74-18.72 91.52-8.11 51.94-16.99 100.41-16.99 100.99-1.35 6.95-7.34 11.78-14.28 11.78v-0.01z"/>
  <path class="fil11" d="m398.43 778.48s-0.58 20.66-16.21 19.3c-16.6-1.35-12.74-21.43-12.74-21.43s4.82-67.77 6.75-105.04c2.13-37.46 6.76-98.28 6.76-98.28s1.16-16.22 15.83-15.25c14.67 0.96 13.12 17.37 13.12 17.37s-4.82 60.25-6.75 97.51c-1.93 37.66-6.76 105.82-6.76 105.82z"/>
  <path class="fil11" d="m449.19 755.3c-7.72 0-14.09-6.17-14.47-13.9 0 0-1.93-48.46-3.28-65.45-1.35-17.38-1.35-89.21-1.35-92.3 0-7.92 6.56-14.48 14.47-14.48 7.92 0 14.48 6.56 14.48 14.48 0 25.49 0.19 76.85 1.35 89.98 1.35 16.99 3.28 64.49 3.47 66.42 0.39 7.92-5.79 14.68-13.89 15.06-0.39 0.19-0.58 0.19-0.78 0.19z"/>
  <path class="fil11" d="m854.73 507.19c-2.32 0-4.83-0.58-7.14-1.93-0.39-0.2-46.33-25.88-76.82-41.13-30.11-15.06-75.28-31.09-75.86-31.28-7.53-2.7-11.58-11.01-8.88-18.54s11-11.39 18.53-8.88c1.93 0.77 47.48 16.8 79.14 32.63 31.27 15.64 76.05 40.74 77.98 41.71 6.95 3.86 9.46 12.75 5.6 19.7-2.51 5.02-7.34 7.72-12.55 7.72z"/>
  <path class="fil11" d="m883.3 448.1c-2.32 0-4.83-0.58-6.95-1.73-0.39-0.2-45.17-24.91-80.49-38.62-34.74-13.52-86.86-21.63-87.25-21.63-7.91-1.16-13.31-8.49-12.16-16.41 1.16-7.92 8.5-13.32 16.41-12.16 2.32 0.38 55.78 8.49 93.42 23.17 37.06 14.48 82.04 39.19 83.97 40.16 6.94 3.86 9.45 12.74 5.59 19.69-2.51 4.83-7.52 7.53-12.54 7.53z"/>
  <path class="fil11" d="m875.96 355.61c-0.77 0-1.35 0-2.12-0.19-0.58 0-49.61-7.53-79.53-10.81-29.14-3.28-80.87-1.35-81.45-1.35-7.91 0.58-14.67-5.99-15.06-13.9-0.38-7.92 5.99-14.68 13.9-15.07 2.13 0 54.44-2.12 85.7 1.35 30.5 3.48 78.76 10.62 80.69 11.01 7.91 1.16 13.31 8.5 12.16 16.41-1.16 7.34-7.34 12.55-14.29 12.55z"/>
  <path class="fil12" d="m1517.2 1520.9c-2.7-61.21 8.11-120.88 16.22-150.81 21.62-79.55 40.72-127.82 84.15-153.5 115.04-68.35 192.06-60.05 233.75-89.79 47.48-33.98 141.68-182.66 210.59-155.43 48.25 19.11 46.13 102.33 46.13 102.33s74.7 1.36 86.86 46.15c12.16 44.8-16.22 91.14-16.22 91.14s57.14 28.19 61.58 66.62c4.44 39.77-12.74 82.44-105.01 112.37-92.26 29.93-211.93 31.67-211.93 31.67s-27.03 161.03-213.29 209.3c-120.83 31.29-188.77-17.57-192.83-110.05z"/>
  <path class="fil1" d="m1523 1454.3c-8.11 3.67-45.17-175.32 69.68-254.68 93.22-64.3 187.42-49.82 240.11-91.53 52.5-41.7 178.35-221.47 268.11-145 48.83 41.7 23.55 92.48 23.55 92.48s57.32-12.35 90.52 44.41c33.59 57.16-14.47 108.71-14.47 108.71s57.13 19.12 57.9 63.33c0.97 44.42-17.18 89.79-66.98 112.38-57.71 26.26-143.99 48.85-193.02 51.56-48.83 2.7-105-11.78-63.31-18.15 41.69-6.38 195.72-55.23 229.12-65.27 57.13-17.18 56.17-59.85 40.72-76.07-22.39-23.75-43.43-18.15-110.6 1.73-56.36 16.8-126.81 49.82-129.51 28.97-2.71-20.86 64.27-43.45 109.63-68.94 45.36-25.29 120.45-52.51 100.57-98.66s-63.31-37.07-112.34-7.34c-48.83 29.93-131.83 92.49-135.89 67.97-1.73-10.82 79.72-77.04 103.27-93.26s72.38-51.56 38.99-90.56-78.75 5.41-112.34 36.3c-33.58 30.89-74.31 89.78-119.48 108.71-68.13 28.57-165.22 37.65-210.97 72.4-97.67 74.73-87.24 213.37-103.26 220.51z"/>
  <path class="fil13" d="m3245.7 1363.9c-90.56 0-172.19-19.53-244.89-58.58-72.69-39.05-129.61-92.85-170.73-161.39-41.13-68.55-61.69-145.61-61.69-231.19s20.56-162.65 61.69-231.19c41.12-68.55 98.04-122.35 170.73-161.4 72.7-39.05 154.33-58.57 244.89-58.57s171.98 19.52 244.26 58.57 129.19 92.85 170.73 161.4c41.54 68.54 62.31 145.61 62.31 231.19s-20.77 162.64-62.31 231.19c-41.54 68.54-98.45 122.34-170.73 161.39s-153.7 58.58-244.26 58.58zm0-171.99c51.51 0 98.03-11.84 139.58-35.52 41.54-23.68 74.15-56.71 97.82-99.08 23.68-42.38 35.52-90.57 35.52-144.57 0-54.01-11.84-102.2-35.52-144.57-23.67-42.38-56.28-75.41-97.82-99.08-41.55-23.68-88.07-35.52-139.58-35.52s-98.04 11.84-139.58 35.52c-41.54 23.67-74.15 56.7-97.83 99.08-23.68 42.37-35.52 90.56-35.52 144.57 0 54 11.84 102.19 35.52 144.57 23.68 42.37 56.29 75.4 97.83 99.08s88.07 35.52 139.58 35.52zm1054.3 124.63c-19.11 14.13-42.58 24.72-70.41 31.78s-57.12 10.6-87.86 10.6c-79.76 0-141.45-20.36-185.07-61.07-43.61-40.72-65.42-100.54-65.42-179.47v-275.44h-103.44v-149.55h103.44v-163.27h194.41v163.27h166.99v149.55h-166.99v272.95c0 28.25 7.27 50.06 21.81 65.43s35.1 23.05 61.69 23.05c30.74 0 56.91-8.31 78.51-24.92l52.34 137.09zm527.16 0c-19.11 14.13-42.58 24.72-70.42 31.78-27.83 7.06-57.11 10.6-87.85 10.6-79.76 0-141.45-20.36-185.07-61.07-43.62-40.72-65.43-100.54-65.43-179.47v-275.44h-103.43v-149.55h103.43v-163.27h194.41v163.27h167v149.55h-167v272.95c0 28.25 7.27 50.06 21.81 65.43s35.11 23.05 61.69 23.05c30.74 0 56.91-8.31 78.52-24.92l52.34 137.09zm745.24-300.36c0 2.49-1.24 19.94-3.73 52.35h-507.22c9.14 41.54 30.74 74.36 64.8 98.45 34.07 24.1 76.44 36.15 127.12 36.15 34.89 0 65.84-5.2 92.84-15.58 27-10.39 52.14-26.8 75.4-49.23l103.44 112.17c-63.15 72.28-155.37 108.43-276.67 108.43-75.6 0-142.48-14.75-200.64-44.25-58.16-29.49-103.02-70.42-134.59-122.76-31.58-52.34-47.36-111.75-47.36-178.22 0-65.64 15.58-124.84 46.73-177.6 31.16-52.76 73.95-93.89 128.37-123.38 54.41-29.5 115.27-44.25 182.57-44.25 65.63 0 125.04 14.13 178.21 42.38s94.92 68.75 125.25 121.51c30.32 52.76 45.48 114.04 45.48 183.83zm-347.7-200.65c-44.03 0-81 12.46-110.91 37.39-29.91 24.92-48.19 58.99-54.83 102.19h330.25c-6.65-42.37-24.93-76.23-54.84-101.57s-66.46-38.01-109.67-38.01zm663-48.61c23.26-32.4 54.63-56.91 94.09-73.53 39.47-16.62 84.95-24.93 136.46-24.93v179.47c-21.6-1.66-36.14-2.49-43.61-2.49-55.67 0-99.29 15.58-130.86 46.73-31.57 31.16-47.35 77.9-47.35 140.21v316.56h-194.42v-670.51h185.69v88.49z"/>
  <path class="fil14" d="m6893.4 895.27c49.85 15.79 88.9 42.17 117.15 79.14s42.37 82.46 42.37 136.47c0 76.44-29.7 135.22-89.11 176.35-59.4 41.13-146.01 61.69-259.84 61.69h-451.13v-872.41h426.21c106.35 0 187.97 20.36 244.88 61.07 56.92 40.71 85.37 95.97 85.37 165.76 0 42.37-10.18 80.18-30.53 113.41-20.36 33.24-48.81 59.41-85.37 78.52zm-439.92-266.71v205.64h200.65c49.84 0 87.65-8.72 113.4-26.17 25.76-17.45 38.64-43.21 38.64-77.27 0-34.07-12.88-59.62-38.64-76.65-25.75-17.03-63.56-25.55-113.4-25.55h-200.65zm235.54 568.31c53.17 0 93.26-8.72 120.26-26.17s40.5-44.45 40.5-81.01c0-72.28-53.58-108.43-160.76-108.43h-235.54v215.61h235.54zm503.48-518.46h194.41v670.51h-194.41v-670.51zm97.2-93.47c-35.72 0-64.8-10.39-87.23-31.16s-33.65-46.53-33.65-77.27 11.22-56.5 33.65-77.27 51.51-31.16 87.23-31.16c35.73 0 64.81 9.97 87.24 29.91 22.43 19.95 33.65 44.87 33.65 74.78 0 32.41-11.22 59.2-33.65 80.39s-51.51 31.78-87.24 31.78zm277.91-160.77h194.42v924.75h-194.42v-924.75zm375.12 0h194.41v924.75h-194.41v-924.75zm600.68 934.73c-55.66 0-110.08-6.86-163.25-20.57-53.18-13.71-95.55-30.95-127.12-51.72l64.81-139.59c29.9 19.11 66.05 34.69 108.42 46.74s83.91 18.07 124.62 18.07c82.25 0 123.38-20.36 123.38-61.07 0-19.11-11.22-32.82-33.65-41.13s-56.91-15.37-103.44-21.18c-54.83-8.31-100.11-17.87-135.84-28.67-35.72-10.8-66.67-29.91-92.84-57.33s-39.26-66.47-39.26-117.15c0-42.38 12.26-79.97 36.76-112.79 24.51-32.82 60.24-58.37 107.18-76.65s102.4-27.42 166.37-27.42c47.36 0 94.51 5.19 141.45 15.58s85.78 24.72 116.52 43l-64.8 138.34c-58.99-33.24-123.38-49.85-193.17-49.85-41.54 0-72.69 5.81-93.46 17.44-20.77 11.64-31.16 26.59-31.16 44.87 0 20.77 11.22 35.31 33.65 43.62s58.16 16.2 107.17 23.68c54.84 9.14 99.7 18.9 134.6 29.29 34.89 10.39 65.22 29.29 90.97 56.71 25.76 27.41 38.64 65.64 38.64 114.66 0 41.54-12.47 78.51-37.39 110.92-24.93 32.4-61.28 57.54-109.05 75.4s-104.47 26.8-170.11 26.8z"/>
</svg>
