<?xml version="1.0" encoding="UTF-8"?>
<!DOCTYPE svg  PUBLIC '-//W3C//DTD SVG 1.1//EN'  'http://www.w3.org/Graphics/SVG/1.1/DTD/svg11.dtd'>
<svg clip-rule="evenodd" fill-rule="evenodd" image-rendering="optimizeQuality" shape-rendering="geometricPrecision" text-rendering="geometricPrecision" version="1.1" viewBox="0 0 6092 996" xml:space="preserve" xmlns="http://www.w3.org/2000/svg">
  <defs>
    <style type="text/css">
      .fil0 {fill:#2B2A29;fill-rule:nonzero}
      .fil1 {fill:#5858FF;fill-rule:nonzero}
    </style>
  </defs>
  <path class="fil0" d="m477.34 996c-90.57 0-172.2-19.53-244.9-58.59s-129.62-92.87-170.75-161.43c-41.12-68.56-61.69-145.64-61.69-231.24 0-85.59 20.57-162.67 61.69-231.23 41.13-68.56 98.05-122.37 170.75-161.43s154.33-58.59 244.9-58.59 171.99 19.53 244.28 58.59c72.28 39.06 129.2 92.87 170.74 161.43 41.55 68.56 62.32 145.64 62.32 231.23 0 85.6-20.77 162.68-62.32 231.24-41.54 68.56-98.46 122.37-170.74 161.43-72.29 39.06-153.71 58.59-244.28 58.59zm0-172.03c51.52 0 98.04-11.84 139.59-35.52 41.54-23.69 74.15-56.72 97.83-99.1 23.68-42.39 35.52-90.59 35.52-144.61 0-54.01-11.84-102.21-35.52-144.6-23.68-42.38-56.29-75.41-97.83-99.1-41.55-23.68-88.07-35.52-139.59-35.52-51.51 0-98.04 11.84-139.59 35.52-41.54 23.69-74.15 56.72-97.83 99.1-23.68 42.39-35.52 90.59-35.52 144.6 0 54.02 11.84 102.22 35.52 144.61 23.68 42.38 56.29 75.41 97.83 99.1 41.55 23.68 88.08 35.52 139.59 35.52zm1054.4 124.66c-19.12 14.13-42.59 24.72-70.42 31.79-27.84 7.06-57.12 10.59-87.87 10.59-79.76 0-141.45-20.36-185.07-61.08-43.63-40.72-65.44-100.55-65.44-179.5v-275.49h-103.44v-149.59h103.44v-163.3h194.43v163.3h167.01v149.59h-167.01v272.99c0 28.26 7.27 50.07 21.81 65.45 14.54 15.37 35.1 23.06 61.69 23.06 30.74 0 56.92-8.31 78.52-24.93l52.35 137.12zm527.19 0c-19.11 14.13-42.59 24.72-70.42 31.79-27.83 7.06-57.12 10.59-87.86 10.59-79.77 0-141.46-20.36-185.08-61.08s-65.43-100.55-65.43-179.5v-275.49h-103.45v-149.59h103.45v-163.3h194.42v163.3h167.01v149.59h-167.01v272.99c0 28.26 7.27 50.07 21.81 65.45 14.54 15.37 35.11 23.06 61.69 23.06 30.75 0 56.92-8.31 78.52-24.93l52.35 137.12zm745.3-300.42c0 2.49-1.25 19.94-3.74 52.36h-507.25c9.13 41.55 30.74 74.37 64.8 98.47 34.07 24.1 76.44 36.15 127.13 36.15 34.89 0 65.84-5.19 92.85-15.58 27-10.39 52.14-26.8 75.4-49.24l103.45 112.19c-63.15 72.3-155.38 108.45-276.69 108.45-75.61 0-142.49-14.75-200.65-44.25-58.17-29.5-103.03-70.43-134.61-122.79-31.57-52.35-47.36-111.77-47.36-178.25 0-65.66 15.58-124.87 46.74-177.64s73.95-93.91 128.37-123.41 115.29-44.25 182.59-44.25c65.64 0 125.04 14.13 178.22 42.38 53.18 28.26 94.93 68.77 125.26 121.54 30.32 52.77 45.49 114.06 45.49 183.87zm-347.73-200.7c-44.03 0-81.01 12.47-110.92 37.4s-48.19 59-54.84 102.22h330.28c-6.65-42.39-24.93-76.25-54.84-101.6-29.91-25.34-66.47-38.02-109.68-38.02zm663.04-48.61c23.27-32.41 54.63-56.93 94.1-73.55s84.96-24.93 136.47-24.93v179.5c-21.6-1.66-36.14-2.49-43.62-2.49-55.67 0-99.29 15.58-130.86 46.75-31.58 31.16-47.36 77.91-47.36 140.24v316.62h-194.43v-670.65h185.7v88.51z"/>
  <path class="fil1" d="m4125.3 527.29c49.85 15.79 88.91 42.18 117.16 79.16s42.37 82.48 42.37 136.5c0 76.45-29.7 135.25-89.11 176.39-59.41 41.13-146.03 61.7-259.86 61.7h-451.16v-872.59h426.24c106.35 0 187.98 20.36 244.9 61.08 56.91 40.72 85.37 95.99 85.37 165.79 0 42.39-10.18 80.2-30.54 113.44-20.35 33.24-48.81 59.42-85.37 78.53zm-439.95-266.76v205.68h200.66c49.85 0 87.66-8.72 113.41-26.18 25.76-17.45 38.64-43.21 38.64-77.28 0-34.08-12.88-59.63-38.64-76.67-25.75-17.03-63.56-25.55-113.41-25.55h-200.66zm235.56 568.43c53.17 0 93.26-8.73 120.27-26.18 27-17.45 40.5-44.46 40.5-81.02 0-72.3-53.59-108.45-160.77-108.45h-235.56v215.65h235.56zm503.51-518.57h194.43v670.65h-194.43v-670.65zm97.21-93.49c-35.72 0-64.81-10.39-87.24-31.16-22.43-20.78-33.65-46.54-33.65-77.29s11.22-56.51 33.65-77.29c22.43-20.77 51.52-31.16 87.24-31.16 35.73 0 64.81 9.97 87.24 29.92 22.44 19.94 33.65 44.87 33.65 74.79 0 32.41-11.21 59.21-33.65 80.4-22.43 21.19-51.51 31.79-87.24 31.79zm277.93-160.81h194.43v924.95h-194.43v-924.95zm375.14 0h194.43v924.95h-194.43v-924.95zm600.73 934.92c-55.67 0-110.09-6.85-163.27-20.57-53.18-13.71-95.55-30.95-127.13-51.73l64.81-139.61c29.92 19.11 66.06 34.69 108.43 46.74 42.38 12.05 83.92 18.08 124.64 18.08 82.25 0 123.38-20.36 123.38-61.08 0-19.12-11.22-32.83-33.65-41.14s-56.92-15.37-103.44-21.19c-54.84-8.31-100.13-17.87-135.85-28.67-35.73-10.8-66.68-29.92-92.85-57.34-26.18-27.43-39.26-66.49-39.26-117.18 0-42.38 12.25-79.99 36.76-112.81 24.51-32.83 60.24-58.38 107.19-76.67 46.94-18.28 102.4-27.42 166.38-27.42 47.36 0 94.51 5.19 141.46 15.58 46.94 10.39 85.79 24.72 116.53 43.01l-64.81 138.37c-58.99-33.25-123.38-49.87-193.18-49.87-41.54 0-72.7 5.82-93.47 17.46-20.78 11.63-31.16 26.59-31.16 44.87 0 20.78 11.22 35.32 33.65 43.63s58.16 16.21 107.18 23.69c54.84 9.14 99.71 18.9 134.61 29.29 34.89 10.39 65.22 29.29 90.98 56.72 25.75 27.42 38.63 65.65 38.63 114.68 0 41.55-12.46 78.53-37.39 110.95-24.92 32.41-61.28 57.54-109.05 75.41-47.78 17.87-104.48 26.8-170.12 26.8z"/>
</svg>
